<svg width="83" height="47" viewBox="0 0 83 47" fill="none" xmlns="http://www.w3.org/2000/svg">
<g opacity="0.9">
<rect x="0.214844" y="0.46582" width="82.6499" height="35.0346" rx="3" fill="#282323"/>
<path d="M41.5409 46.0654L34.8578 34.49L48.2239 34.49L41.5409 46.0654Z" fill="#282323"/>
</g>
<path d="M31.7871 20.6174C31.7871 21.1841 31.6454 21.7167 31.3621 22.2154C31.0901 22.7141 30.6821 23.1334 30.1381 23.4734C29.6054 23.8134 28.9707 24.0174 28.2341 24.0854V25.4624H27.1291V24.0854C26.0637 23.9834 25.2024 23.6491 24.5451 23.0824C23.8877 22.5157 23.5591 21.7677 23.5591 20.8384H25.6331C25.6671 21.2804 25.8087 21.6487 26.0581 21.9434C26.3074 22.2267 26.6644 22.4081 27.1291 22.4874V18.7474C26.3697 18.5547 25.7521 18.3621 25.2761 18.1694C24.8001 17.9654 24.3921 17.6481 24.0521 17.2174C23.7234 16.7867 23.5591 16.1974 23.5591 15.4494C23.5591 14.5087 23.8877 13.7324 24.5451 13.1204C25.2024 12.4971 26.0637 12.1344 27.1291 12.0324V10.6554H28.2341V12.0324C29.2314 12.1231 30.0304 12.4404 30.6311 12.9844C31.2431 13.5171 31.5887 14.2537 31.6681 15.1944H29.5941C29.5601 14.8431 29.4241 14.5314 29.1861 14.2594C28.9481 13.9761 28.6307 13.7834 28.2341 13.6814V17.3534C28.9934 17.5347 29.6111 17.7274 30.0871 17.9314C30.5631 18.1241 30.9654 18.4357 31.2941 18.8664C31.6227 19.2857 31.7871 19.8694 31.7871 20.6174ZM25.5311 15.3474C25.5311 15.8121 25.6671 16.1747 25.9391 16.4354C26.2224 16.6961 26.6191 16.9057 27.1291 17.0644V13.6304C26.6417 13.6871 26.2507 13.8627 25.9561 14.1574C25.6727 14.4521 25.5311 14.8487 25.5311 15.3474ZM28.2341 22.4874C28.7327 22.4081 29.1237 22.2097 29.4071 21.8924C29.6904 21.5637 29.8321 21.1727 29.8321 20.7194C29.8321 20.2661 29.6904 19.9147 29.4071 19.6654C29.1351 19.4047 28.7441 19.1951 28.2341 19.0364V22.4874ZM34.3607 13.3584V11.5904H37.8967V23.9834H35.9417V13.3584H34.3607ZM40.5251 14.6504C40.5931 13.5964 40.9954 12.7747 41.7321 12.1854C42.4801 11.5961 43.4321 11.3014 44.5881 11.3014C45.3814 11.3014 46.0671 11.4431 46.6451 11.7264C47.2231 12.0097 47.6594 12.3951 47.9541 12.8824C48.2487 13.3697 48.3961 13.9194 48.3961 14.5314C48.3961 15.2341 48.2091 15.8347 47.8351 16.3334C47.4611 16.8321 47.0134 17.1664 46.4921 17.3364V17.4044C47.1607 17.6084 47.6821 17.9824 48.0561 18.5264C48.4301 19.0591 48.6171 19.7447 48.6171 20.5834C48.6171 21.2521 48.4641 21.8471 48.1581 22.3684C47.8521 22.8897 47.3987 23.3034 46.7981 23.6094C46.1974 23.9041 45.4777 24.0514 44.6391 24.0514C43.4151 24.0514 42.4064 23.7397 41.6131 23.1164C40.8311 22.4817 40.4117 21.5751 40.3551 20.3964H42.2251C42.2704 20.9971 42.5027 21.4901 42.9221 21.8754C43.3414 22.2494 43.9081 22.4364 44.6221 22.4364C45.3134 22.4364 45.8461 22.2494 46.2201 21.8754C46.5941 21.4901 46.7811 20.9971 46.7811 20.3964C46.7811 19.6031 46.5261 19.0421 46.0161 18.7134C45.5174 18.3734 44.7467 18.2034 43.7041 18.2034H43.2621V16.6054H43.7211C44.6391 16.5941 45.3361 16.4411 45.8121 16.1464C46.2994 15.8517 46.5431 15.3871 46.5431 14.7524C46.5431 14.2084 46.3674 13.7777 46.0161 13.4604C45.6647 13.1317 45.1661 12.9674 44.5201 12.9674C43.8854 12.9674 43.3924 13.1317 43.0411 13.4604C42.6897 13.7777 42.4801 14.1744 42.4121 14.6504H40.5251ZM50.6528 17.6254C50.6528 15.6647 50.9815 14.1347 51.6388 13.0354C52.3075 11.9247 53.4521 11.3694 55.0728 11.3694C56.6935 11.3694 57.8325 11.9247 58.4898 13.0354C59.1585 14.1347 59.4928 15.6647 59.4928 17.6254C59.4928 19.6087 59.1585 21.1614 58.4898 22.2834C57.8325 23.3941 56.6935 23.9494 55.0728 23.9494C53.4521 23.9494 52.3075 23.3941 51.6388 22.2834C50.9815 21.1614 50.6528 19.6087 50.6528 17.6254ZM57.5888 17.6254C57.5888 16.7074 57.5265 15.9311 57.4018 15.2964C57.2885 14.6617 57.0505 14.1461 56.6878 13.7494C56.3251 13.3414 55.7868 13.1374 55.0728 13.1374C54.3588 13.1374 53.8205 13.3414 53.4578 13.7494C53.0951 14.1461 52.8515 14.6617 52.7268 15.2964C52.6135 15.9311 52.5568 16.7074 52.5568 17.6254C52.5568 18.5774 52.6135 19.3764 52.7268 20.0224C52.8401 20.6684 53.0781 21.1897 53.4408 21.5864C53.8148 21.9831 54.3588 22.1814 55.0728 22.1814C55.7868 22.1814 56.3251 21.9831 56.6878 21.5864C57.0618 21.1897 57.3055 20.6684 57.4188 20.0224C57.5321 19.3764 57.5888 18.5774 57.5888 17.6254Z" fill="white"/>
</svg>
